<svg xmlns="http://www.w3.org/2000/svg" width="256" height="256"><path fill="#1976D2" fill-opacity=".016" fill-rule="evenodd" d="M0 128.004v128.004l128.25-.254 128.25-.254.254-127.75L257.008 0H0zm.485.496c0 70.4.119 99.053.265 63.672s.146-92.98 0-128S.485 58.1.485 128.5"/><path fill="#1976D2" fill-opacity=".127" fill-rule="evenodd" d="M26 6.881c-6.207 3.921-12.791 12.092-15.149 18.802C9.245 30.254 8.952 33.18 9.278 41.4c.22 5.555.947 12.125 1.615 14.6C13.569 65.916 30.192 95.291 38 103.902c7.632 8.417 18 23.185 18 25.638 0 2.825-4.133 9.159-11.067 16.96-3.911 4.4-8.272 9.8-9.691 12s-3.582 5.575-4.806 7.5a2007 2007 0 0 1-5.08 7.932c-14.918 23.151-19.48 36.385-17.914 51.963 1.481 14.724 13.406 24.971 31.058 26.687 6.727.654 15.095-1.65 28.606-7.874 4.067-1.874 8.069-3.686 8.894-4.028 1.578-.654 16.763-10.415 26.668-17.141 3.208-2.178 7.407-5.387 9.332-7.13 4.815-4.36 15.444-11.418 17.121-11.368.759.022 3.001 1.26 4.983 2.75s9.085 6.871 15.785 11.959 12.437 9.25 12.752 9.25c.314 0 2.211 1.285 4.215 2.855s8.819 5.438 15.144 8.595 12.29 6.152 13.255 6.656c5.596 2.924 17.575 5.894 23.773 5.894 13.963 0 27.828-10.467 30.466-23 .405-1.925 1.179-4.049 1.72-4.721 2.129-2.645-2.207-23.241-6.363-30.226-1.163-1.954-3.7-6.476-5.638-10.048-5.686-10.48-18.43-28.598-29.195-41.505-7.052-8.455-10.01-12.773-10.013-14.615-.005-2.647 1.493-5.014 7.937-12.542 1.957-2.287 5.583-6.917 8.058-10.29s6.094-8.252 8.042-10.843c4.572-6.079 6.518-9.353 13.498-22.71C245.298 57.655 249 45.268 249 34.153c0-10.372-1.887-14.905-9.175-22.042-11.228-10.994-29.59-10.707-52.825.826-4.675 2.32-10.975 5.761-14 7.647a811 811 0 0 1-10 6.125c-14.704 8.808-23 16.968-23 22.623 0 5.935 17.704 22.665 23.991 22.67 1.38.002 5.434-1.953 9.009-4.343s8.655-5.57 11.29-7.068 6.234-3.982 8-5.522C196.277 51.592 203.238 48 205.992 48c1.139 0 2.343.708 2.675 1.574.956 2.492-1.783 9.375-5.501 13.826-1.874 2.243-7.119 9.033-11.655 15.089C182.174 90.954 174.974 98 171.572 98c-1.659 0-8.949-6.569-26.185-23.598C132.249 61.423 120.375 50.077 119 49.188s-4.469-3.207-6.876-5.152C107.735 40.489 93.284 30.231 83 23.363 71.963 15.991 52.752 7.22 44.013 5.562 32.912 3.456 31.226 3.58 26 6.881m23.667 42.786c-2.201 2.2 3.155 14.549 9.96 22.965 1.72 2.128 5.292 6.568 7.937 9.868s6.017 7.35 7.493 9 6.919 7.725 12.097 13.5c10.927 12.187 16.222 19.379 17.233 23.404 1.034 4.123-3.397 12.291-10.285 18.957-8.507 8.231-27.421 29.903-33.574 38.467-4.875 6.786-12.337 21.299-11.786 22.922.803 2.365 5.506 1.24 14.123-3.378 14.068-7.541 19.626-11.612 49.353-36.151C126.64 157.316 128.704 156 132.963 156c3.791 0 4.804.688 14.348 9.75 16.447 15.617 19.703 18.519 28.689 25.567 16.323 12.803 25.9 18.834 30.223 19.033 5.847.268 4.595-3.026-8.426-22.167-2.363-3.474-6.097-8.472-8.297-11.105s-6.777-8.115-10.172-12.183-17.345-18.707-31-32.533-27.143-27.551-29.973-30.5C111.136 94.338 104.823 88.673 93.992 80c-5.152-4.125-12.095-10.031-15.429-13.124-3.335-3.094-7.638-6.412-9.563-7.375-1.925-.962-5.3-3.199-7.5-4.97-6.314-5.083-10.071-6.627-11.833-4.864"/><path fill="#1976D2" fill-opacity=".493" fill-rule="evenodd" d="M26.435 8.877c-4.666 2.845-9.511 9.607-12.168 16.982-2.134 5.922-2.346 7.885-1.965 18.141l.428 11.5L18.323 67c9.239 19 15.988 29.642 26.692 42.091 3.117 3.625 7.37 9.157 9.452 12.293 3.207 4.832 3.706 6.293 3.265 9.574-.553 4.127-4.182 10.028-10.171 16.542-9.998 10.874-11.429 12.797-17.488 23.5-2.335 4.125-5.981 10.2-8.103 13.5-9.056 14.087-13.7 28.508-12.707 39.461 1.103 12.169 9.093 21.334 21.391 24.537 6.764 1.762 13.266 1.91 18.846.429 6.21-1.647 26.546-10.833 31-14.002 2.2-1.565 6.25-4.052 9-5.527 2.75-1.474 6.846-4.192 9.103-6.039 2.257-1.848 4.607-3.359 5.224-3.359.616 0 3.068-1.948 5.449-4.328 6.423-6.423 16.09-12.672 19.604-12.672 2.128 0 5.096 1.662 10.304 5.77 20.545 16.204 30.213 22.847 41.634 28.608 4.026 2.03 8.076 4.097 9 4.594 8.835 4.749 22.648 9.028 29.139 9.028 5.494 0 15.429-3.912 19.742-7.774 11.176-10.009 12.827-28.371 4.112-45.726-1.105-2.2-3.378-6.7-5.052-10-4.625-9.118-18.885-30.255-24.963-37C202.567 139.147 197 131.892 197 129.916c0-3.303 2.545-8.221 6.165-11.916 4.523-4.616 15.762-19.233 21.809-28.365 11.327-17.104 20.789-40.461 21.783-53.77.419-5.617.114-7.457-1.994-12-2.583-5.568-8.388-12.081-12.827-14.39-3.967-2.064-13.624-2.745-22.436-1.584-10.944 1.443-20.776 5.716-38.96 16.931-17.307 10.675-24.49 16.347-27.162 21.449-1.281 2.445-1.266 3.163.124 6.092 1.894 3.992 6.139 8.126 13.36 13.01 6.308 4.266 8.651 4.478 13.24 1.198 1.869-1.335 6.317-4.117 9.884-6.18 3.567-2.064 7.392-4.614 8.5-5.666 5.439-5.169 11.012-8.102 16.21-8.533 5.596-.464 8.312.741 8.294 3.68-.021 3.505-5.226 12.532-11.757 20.388-3.767 4.532-8.235 10.265-9.929 12.74s-6.016 7.313-9.605 10.75c-9.624 9.217-10.678 9.043-24.294-4-5.885-5.638-11.871-11.569-13.302-13.18-4.728-5.323-20.85-20.628-24.622-23.373-2.038-1.483-5.792-4.524-8.343-6.756s-7.113-5.708-10.138-7.724a416 416 0 0 1-11-7.648C77.245 21.832 52.505 9.305 44.394 7.977c-8.982-1.471-14.527-1.193-17.959.9m20.36 38.302c-4.416 3.422 3.534 18.088 21.704 40.035 6.049 7.307 14.462 17.025 18.694 21.594 11.586 12.508 14.069 16.629 13.534 22.463-.528 5.757-2.563 8.781-13.808 20.517-4.631 4.833-9.769 10.349-11.419 12.26C61.014 180.819 55.749 187.853 51.586 196c-1.545 3.025-3.434 6.21-4.198 7.079-1.704 1.938-1.823 8.086-.188 9.721 1.751 1.751 3.507 1.498 9.204-1.328 18.998-9.424 30.27-17.313 52.953-37.062 4.479-3.899 9.268-7.682 10.643-8.405 1.375-.724 4.346-2.821 6.603-4.66 2.257-1.84 4.984-3.345 6.06-3.345 2.077 0 8.687 5.3 19.337 15.507 13.476 12.916 21.858 19.882 33.465 27.815 21.023 14.369 23.569 15.501 27.036 12.034 2.104-2.103 1.476-4.575-3.191-12.569-8.035-13.762-31.363-42.656-45.561-56.432-6.187-6.003-13.565-13.376-16.396-16.385-2.83-3.008-8.23-8.456-12-12.106s-10.678-10.57-15.353-15.377c-8.449-8.688-22.802-21.498-34.746-31.012-3.436-2.736-6.248-5.271-6.25-5.633s-3.898-3.287-8.656-6.5L58.245 49.17c-4.292-2.897-9.183-3.748-11.45-1.991"/><path fill="#1976D2" fill-opacity=".307" fill-rule="evenodd" d="M25.139 11.537c-1.821 1.532-3.789 3.951-4.373 5.374-7.421 18.098-8.311 25.902-4.387 38.451 1.4 4.476 4.137 11.175 6.083 14.888s5.025 9.563 6.843 13c3.772 7.134 14.6 22.502 18.846 26.747 1.57 1.57 4.92 5.925 7.444 9.679 4.205 6.252 4.54 7.194 3.993 11.243-.801 5.937-4.04 11.116-12.559 20.081-7.547 7.942-15.404 20.009-17.092 26.25-.558 2.062-1.45 3.75-1.982 3.75-1.364 0-8.987 12.268-12.372 19.91-2.363 5.335-2.918 8.186-3.312 17l-.474 10.59 3.931 6.02c3.182 4.873 5.153 6.671 10.351 9.442 5.726 3.053 7.287 3.429 14.421 3.48 7.417.052 8.801-.293 19-4.736 15.108-6.582 17.492-7.813 20.973-10.824 1.665-1.44 5.277-3.772 8.027-5.182 7.623-3.908 15.666-9.266 19.004-12.659 3.794-3.858 13.027-10.602 17.128-12.511 4.454-2.074 7.949-.769 16.431 6.135 3.943 3.209 8.13 6.49 9.303 7.291s4.834 3.531 8.134 6.068c8.328 6.402 10.642 7.741 30.5 17.641l17.5 8.725 11.081.055c10.517.052 11.284-.086 15.076-2.71 7.285-5.043 9.789-8.237 12.111-15.448 2.574-7.992 2.825-13.24.818-17.121-.778-1.504-1.72-4.52-2.094-6.701s-1.537-5.184-2.585-6.675-1.907-3.347-1.907-4.127-.652-1.959-1.449-2.621-1.973-2.789-2.613-4.729c-1.011-3.064-4.139-8.158-15.013-24.445-1.334-1.998-7.712-9.624-14.175-16.946-7.872-8.919-11.75-14.087-11.75-15.658 0-3.98 3.955-10.467 10.62-17.417 3.509-3.659 6.382-7.034 6.385-7.5.002-.466 1.287-2.216 2.855-3.889s4.102-5.047 5.63-7.5c1.528-2.452 4.575-7.262 6.772-10.69 5.629-8.784 11.266-21.542 15.773-35.694 3.921-12.314 1.657-24.916-5.693-31.695-6.312-5.82-7.897-6.329-19.406-6.238-12.697.101-16.807 1.342-31.731 9.582-15.17 8.375-20.291 11.45-25.445 15.277-2.222 1.65-5.059 3.566-6.304 4.258C150.161 40.59 145 46.774 145 48.891c0 2.947 6.464 10.556 11.967 14.088 6.272 4.024 9.904 3.738 16.969-1.338 2.654-1.906 6.145-4.149 7.757-4.982s5.228-3.58 8.033-6.103C195.984 44.93 200.399 43 207.013 43c9.097 0 12.509 6.195 7.487 13.595-1.375 2.026-2.5 4.252-2.5 4.945s-3.413 4.793-7.585 9.11c-4.171 4.318-8.403 9.425-9.405 11.35s-3.704 5.3-6.006 7.5a389 389 0 0 0-7.845 7.748c-2.012 2.062-4.029 3.749-4.48 3.75s-1.529.71-2.394 1.574c-1.004 1.004-2.446 1.353-3.988.967-2.164-.544-15.254-12.424-27.038-24.539-12.661-13.017-19.283-19.391-24.144-23.238-2.962-2.344-9.074-7.187-13.583-10.762-9.581-7.596-10.86-8.53-19.676-14.359C78.106 25.516 75.73 24.214 59 15.923 47.053 10.002 46.1 9.706 37.475 9.24c-8.744-.474-9.129-.402-12.336 2.297m18.732 34.366-2.351 1.904 1.945 5.723c1.07 3.147 2.641 6.678 3.49 7.846s2.417 3.837 3.483 5.931 3.075 5.019 4.464 6.5C56.29 75.288 61.216 81.225 65.848 87s11.398 13.656 15.036 17.514c9.172 9.724 11.235 12.265 14.501 17.861 2.377 4.072 2.768 5.683 2.373 9.789-.526 5.482-.371 5.267-16.63 23.014C59.41 178.885 54.5 185.46 44.522 204.196c-2.559 4.805-2.502 6.809.285 10.054 1.573 1.832 9.596 2.526 10.591.916.591-.957 20.027-12.132 21.276-12.233 1.838-.149 34.207-25.65 37.28-29.37 1.389-1.681 12.056-8.952 16.793-11.447 3.172-1.67 5.148-.407 17.819 11.384 19.16 17.83 24.289 22.066 36.072 29.796 5.576 3.658 12.326 8.344 15 10.413 4.037 3.125 5.664 3.766 9.584 3.777 6.117.018 9.315-2.765 8.33-7.248-.684-3.117-9.703-17.448-14.37-22.834-1.475-1.703-4.239-5.303-6.142-8s-3.998-5.354-4.655-5.904-4.275-5.05-8.04-10-11.737-13.64-17.715-19.311c-5.979-5.671-13.254-13.103-16.168-16.516-2.914-3.414-7.247-7.736-9.63-9.606s-6.807-6.115-9.832-9.432c-8.149-8.936-23.369-23.409-32.852-31.239-4.594-3.793-11.344-9.63-15-12.972S74.25 57.07 71.5 55.508s-6.87-4.36-9.155-6.217c-6.669-5.419-14.249-6.809-18.474-3.388"/></svg>